# xmcd CD database file
#
# Track frame offsets:
#	150
#	22884
#	42026
#	59975
#	69179
#	87016
#	104478
#	124107
#	139334
#	160291
#	182283
#	203562
#	217709
#	243203
#	261872
#	278539
#	296931
#
# Disc length: 4205 seconds
#
# Revision: 0
# Processed by: cddbd v1.5.2PL0 Copyright (c) Steve Scherf et al.
# Submitted via: CDex 1.70beta2
#
DISCID=ed106b11
DTITLE=Various Artist - High Endition Vol.13 - Roadtracks
DYEAR=2009
DGENRE=Country
TTITLE0=Bo Ramsey - Can´t Sleep
TTITLE1=Chris Farlowe - I´ve Got Your Love
TTITLE2=Tracy Grammer - Shadows Of Evangeline
TTITLE3=The Pines - Avenue Of The Saints
TTITLE4=Chip Taylor - Dance With A Hole In Your Shoes
TTITLE5=Kari Bremnes - Ikkje Bare Vaeren
TTITLE6=Jimmy Little - Alone With You
TTITLE7=Tom Rush - What An Old Lover Knows
TTITLE8=Otis Taylor - Lost My Guitar
TTITLE9=Alan Taylor - Dedicated To..
TTITLE10=Jan Hirte´s Blue Ribbon - I Always Will
TTITLE11=Hans Theesink - Demons
TTITLE12=Bo Ramsey - I Don´t Know
TTITLE13=Jim Byrnes - Three Shots
TTITLE14=Eilen Jewell - Codeine Arms
TTITLE15=Paul O´Brien - Misty Mountain
TTITLE16=Allan Taylor - Lay Soft On Your Pillow
EXTD=YEAR: 2009
EXTT0=
EXTT1=
EXTT2=
EXTT3=
EXTT4=
EXTT5=
EXTT6=
EXTT7=
EXTT8=
EXTT9=
EXTT10=
EXTT11=
EXTT12=
EXTT13=
EXTT14=
EXTT15=
EXTT16=
PLAYORDER=
